<mxfile host="app.diagrams.net" modified="2023-10-21T13:40:10.391Z" agent="Mozilla/5.0 (Windows NT 10.0; Win64; x64) AppleWebKit/537.36 (KHTML, like Gecko) Chrome/118.0.0.0 Safari/537.36" version="22.0.6" etag="JqznLxXmKjxvvL9r__ph" type="github">
  <diagram name="페이지-1" id="helDZ65J9d7LbhVYJ8TA">
    <mxGraphModel>
      <root>
        <mxCell id="0" />
        <mxCell id="1" parent="0" />
      </root>
    </mxGraphModel>
  </diagram>
</mxfile>
